<svg width="32" height="32" viewBox="0 0 32 32" fill="none" xmlns="http://www.w3.org/2000/svg">
<circle cx="16" cy="16" r="16" fill="#F5F4F7"/>
<path fill-rule="evenodd" clip-rule="evenodd" d="M14.6035 22.755C15.0352 23.2358 15.5894 23.5 16.1644 23.5H16.1652C16.7427 23.5 17.2994 23.2358 17.7319 22.7542C17.9635 22.4983 18.3585 22.4775 18.6144 22.7083C18.871 22.9392 18.8919 23.335 18.661 23.5908C17.9877 24.3383 17.1019 24.75 16.1652 24.75H16.1635C15.2294 24.7492 14.3452 24.3375 13.6744 23.59C13.4435 23.3342 13.4644 22.9383 13.721 22.7083C13.9777 22.4767 14.3727 22.4975 14.6035 22.755ZM16.2059 6.83334C19.91 6.83334 22.3984 9.71834 22.3984 12.4125C22.3984 13.7983 22.7509 14.3858 23.125 15.0092C23.495 15.6242 23.9142 16.3225 23.9142 17.6425C23.6234 21.015 20.1025 21.29 16.2059 21.29C12.3092 21.29 8.78752 21.015 8.50001 17.6958C8.49752 16.3225 8.91669 15.6242 9.28669 15.0092L9.41731 14.7893C9.73892 14.2366 10.0134 13.6353 10.0134 12.4125C10.0134 9.71834 12.5017 6.83334 16.2059 6.83334ZM16.2059 8.08334C13.2934 8.08334 11.2634 10.365 11.2634 12.4125C11.2634 14.145 10.7825 14.9458 10.3575 15.6525C10.0167 16.22 9.74752 16.6683 9.74752 17.6425C9.88669 19.2142 10.9242 20.04 16.2059 20.04C21.4584 20.04 22.5284 19.1775 22.6667 17.5883C22.6642 16.6683 22.395 16.22 22.0542 15.6525C21.6292 14.9458 21.1484 14.145 21.1484 12.4125C21.1484 10.365 19.1184 8.08334 16.2059 8.08334Z" fill="black"/>
</svg>
