<svg width="32" height="32" viewBox="0 0 32 32" fill="none" xmlns="http://www.w3.org/2000/svg">
<circle cx="16" cy="16" r="16" fill="#F5F4F7"/>
<path fill-rule="evenodd" clip-rule="evenodd" d="M22.833 11.2035C21.6376 9.50237 19.863 8.3184 17.836 7.8697C17.5762 7.81219 17.3106 7.7786 17.0532 7.746C16.9332 7.73085 16.8091 7.71519 16.6865 7.69702C16.6582 7.69285 16.6302 7.68655 16.6012 7.68014L16.5381 7.66666H15.5752L15.5649 7.6671L15.558 7.66794C15.4816 7.67741 15.405 7.68655 15.3285 7.69569C15.167 7.71491 15 7.7348 14.8337 7.75837C13.2748 7.97924 11.8745 8.60295 10.672 9.61219C9.1611 10.8802 8.20592 12.4847 7.83305 14.3809C7.42585 16.452 7.76702 18.4298 8.84718 20.2595C9.01178 20.5382 9.19749 20.7971 9.37356 21.0383C9.41975 21.1015 9.41874 21.1184 9.39328 21.1761C9.11669 21.8039 8.84161 22.4445 8.57555 23.064C8.57555 23.064 8.40277 23.4663 8.31869 23.6617C8.12496 24.1115 8.21906 24.3883 8.64359 24.617L8.68064 24.6369H8.95539L8.97088 24.6359L8.98107 24.634C9.08321 24.6148 9.18534 24.5953 9.28742 24.5758L9.33444 24.5669C9.57387 24.5212 9.84527 24.4693 10.1093 24.4224C11.0162 24.2616 12.0879 24.0726 13.1604 23.8896C13.1814 23.886 13.2041 23.8842 13.2276 23.8842C13.2749 23.8842 13.3213 23.8913 13.3618 23.9048C14.2165 24.1891 15.0975 24.3332 15.9805 24.3332C16.1611 24.3332 16.3451 24.3272 16.5273 24.3152C18.3423 24.1963 19.9632 23.5459 21.345 22.3823C22.9662 21.017 23.9411 19.2778 24.2427 17.2131C24.555 15.0759 24.0543 12.9417 22.833 11.2035ZM9.86349 23.1775C9.97214 22.9231 10.079 22.6728 10.1864 22.4226C10.2282 22.3251 10.2696 22.2275 10.311 22.1298C10.4192 21.8747 10.5311 21.6107 10.649 21.3559C10.7876 21.0565 10.7522 20.788 10.5405 20.5352C9.95755 19.839 9.52623 19.0611 9.25866 18.2232C8.66632 16.3685 8.78779 14.5798 9.61961 12.9069C10.6686 10.7973 12.3701 9.49122 14.6769 9.02486C15.1272 8.93381 15.5878 8.88768 16.0458 8.88768C19.4228 8.88768 22.3381 11.2782 22.9776 14.5719C23.6805 18.1921 21.6514 21.6429 18.1528 22.7771C17.4455 23.0063 16.7285 23.1225 16.0218 23.1225C15.3187 23.1225 14.6103 23.0075 13.9161 22.7806C13.6872 22.7058 13.4592 22.6694 13.2193 22.6694C13.0535 22.6694 12.8807 22.6868 12.6911 22.7224C11.9453 22.8629 11.1883 22.9938 10.4562 23.1204C10.2519 23.1557 10.0474 23.1911 9.84243 23.2267L9.86349 23.1775Z" fill="#343434"/>
<path fill-rule="evenodd" clip-rule="evenodd" d="M13.3692 17.6574L18.5938 17.6573L18.6787 17.6576C18.72 17.6576 18.7691 17.657 18.8197 17.6525C19.0657 17.6308 19.25 17.4907 19.3385 17.2581C19.4103 17.0697 19.3879 16.8692 19.2771 16.708C19.1599 16.5373 18.9657 16.4388 18.7441 16.4379C18.3442 16.4364 17.9444 16.4359 17.5445 16.4359L16.0963 16.4366L13.3723 16.4364C12.9143 16.4365 12.6286 16.6695 12.6268 17.0445C12.6261 17.208 12.6816 17.3506 12.7873 17.4568C12.9177 17.5879 13.119 17.6573 13.3692 17.6574Z" fill="#343434"/>
<path fill-rule="evenodd" clip-rule="evenodd" d="M13.2699 15.4322C13.6268 15.4344 13.9835 15.4353 14.3403 15.4353C14.7676 15.4353 15.195 15.4341 15.6222 15.4325C15.8718 15.4316 16.071 15.3162 16.183 15.1075C16.2874 14.913 16.2863 14.6976 16.1801 14.5166C16.0676 14.3251 15.8547 14.2084 15.6105 14.2044C15.4738 14.2022 15.328 14.2011 15.1516 14.2011C15.0323 14.2011 14.9131 14.2016 14.7939 14.2021C14.6761 14.2025 14.5583 14.203 14.4367 14.203C14.3212 14.203 14.2058 14.2027 14.0902 14.2023L14.0653 14.2022C13.9578 14.2019 13.8503 14.2016 13.7428 14.2016C13.5855 14.2016 13.4282 14.2022 13.2711 14.2044C12.8996 14.2095 12.6289 14.4669 12.6275 14.8164C12.6262 15.1708 12.8964 15.4297 13.2699 15.4322Z" fill="#343434"/>
</svg>
